# xmcd CD database file
#
# Track frame offsets:
#	150
#	15183
#	26389
#	46307
#	56588
#	67625
#	77542
#	87586
#	100984
#	114025
#	126011
#	135954
#	156630
#	170847
#	184428
#	200999
#	214495
#	227703
#	246749
#	260730
#	283988
#	299875
#	323008
#
# Disc length: 4496 seconds
#
# Revision: 0
# Processed by: cddbd v1.5.2PL0 Copyright (c) Steve Scherf et al.
# Submitted via: CDex 1.51
#
DISCID=5f118e17
DTITLE=Chet Baker - Chet Sings ! [CD2)
DYEAR=2013
DGENRE=Jazz
TTITLE0=My Buddy
TTITLE1=Like Someone In Love
TTITLE2=My Ideal
TTITLE3=Let Me Be Loved
TTITLE4=The Night We Called It A Day
TTITLE5=Embraceable You
TTITLE6=They All Laughed
TTITLE7=There's A Lull In My Life
TTITLE8=While My Lady Sleeps
TTITLE9=Forgetful
TTITLE10=Come Rain Or Come Shine
TTITLE11=Little Girl Blue
TTITLE12=The More I See You
TTITLE13=Old Devil Moon
TTITLE14=You Make Me Feel So Young
TTITLE15=You're Driving Me Crazy
TTITLE16=It Could Happen To You
TTITLE17=How Long Has This Been Going On?
TTITLE18=Do It The Hard Way
TTITLE19=I'm Old Fashioned
TTITLE20=My Heart Stood Still
TTITLE21=Everything Happens To Me
TTITLE22=Dancing On The Ceiling
EXTD=YEAR: 2013
EXTT0=
EXTT1=
EXTT2=
EXTT3=
EXTT4=
EXTT5=
EXTT6=
EXTT7=
EXTT8=
EXTT9=
EXTT10=
EXTT11=
EXTT12=
EXTT13=
EXTT14=
EXTT15=
EXTT16=
EXTT17=
EXTT18=
EXTT19=
EXTT20=
EXTT21=
EXTT22=
PLAYORDER=
